<svg width="122" height="35" viewBox="0 0 122 35" fill="none" xmlns="http://www.w3.org/2000/svg">
<path d="M13.2931 0.0301857C13.0118 0.311459 13.2931 0.679279 13.9206 0.809097C15.6948 1.19855 17.5339 2.79965 17.9666 4.35748C18.0748 4.79021 18.1829 6.3264 18.1829 7.79767V10.459L17.4257 9.87477C16.1275 8.8795 14.072 8.27368 12.0382 8.27368C8.87927 8.27368 6.23962 9.39877 3.88125 11.7571C-1.33314 16.9499 -1.28987 26.0589 3.98943 31.2949C6.60744 33.9129 9.72309 35.0163 13.0767 34.5187C14.9158 34.2591 16.3222 33.6533 17.2309 32.7229C17.5771 32.3767 17.9233 32.0738 18.0315 32.0738C18.118 32.0738 18.1829 32.5498 18.1829 33.1556V34.2374H25.6475C32.8308 34.2374 33.1121 34.2158 33.1121 33.8263C33.1121 33.5667 32.9174 33.372 32.5712 33.2854C31.6841 33.0691 30.3643 31.706 29.9532 30.6025C29.5854 29.6721 29.5421 28.4605 29.4339 17.2528C29.3257 5.41766 29.3041 4.87675 28.8714 3.88148C28.2006 2.30201 27.3352 1.37164 25.9937 0.722549C24.8037 0.181641 24.6739 0.160004 19.0917 0.0518188C15.9544 -0.0130882 13.3364 -0.0130882 13.2931 0.0301857ZM15.9544 10.221C15.9977 10.221 16.2573 10.5888 16.5602 11.0431C17.5771 12.5793 17.8584 14.6781 17.8584 21.1474C17.8584 25.929 17.7935 27.2921 17.4906 28.6769C16.8199 31.6627 16.1491 32.6147 14.6778 32.6147C13.4446 32.6147 12.7738 31.7709 12.1031 29.4558C11.6271 27.7465 11.6055 27.2921 11.5838 21.3637C11.5838 15.9114 11.6271 14.8728 11.9949 13.4664C12.7522 10.4373 13.5744 9.5935 15.262 10.0479C15.6082 10.1344 15.9328 10.221 15.9544 10.221Z" fill="black"/>
<path d="M73.1396 0.268177C73.1396 0.441269 73.6156 0.80909 74.1998 1.06873C75.26 1.56637 76.0173 2.4751 76.6014 3.94638C77.0125 4.96329 77.1856 26.8378 76.8178 29.0879C76.5365 30.6674 75.4763 32.6147 74.8705 32.6147C74.6974 32.6147 74.308 32.182 74.0051 31.6411L73.4642 30.6674L73.3343 18.1183C73.2262 7.32167 73.1612 5.39602 72.8583 4.37911C72.3174 2.58328 71.4952 1.56637 70.0023 0.80909L68.7041 0.159996L63.4681 0.0950851C58.7297 0.0301781 58.2104 0.051815 58.2104 0.354725C58.2104 0.571091 58.4701 0.765816 58.8812 0.852364C59.8981 1.04709 61.1097 2.34528 61.6506 3.79492C62.105 5.00657 62.105 5.30947 62.105 16.9715C62.105 27.595 62.0617 29.023 61.7372 30.0616C61.2612 31.5761 60.1577 32.8527 59.0543 33.1772C58.4701 33.372 58.2104 33.5667 58.2104 33.848C58.2104 34.2158 58.8163 34.2374 74.4378 34.2374C90.5786 34.2374 90.6651 34.2374 90.6651 33.8047C90.6651 33.5451 90.4488 33.2854 90.1459 33.1556C89.5617 32.9392 88.891 31.9223 88.4799 30.6674C88.2635 30.0183 88.177 26.6647 88.0904 17.2528L87.9606 4.70365L87.3764 3.51365C86.5109 1.71782 85.7104 0.960545 84.1526 0.441269C83.7415 0.311451 81.1235 0.138359 78.2675 0.073452C73.7887 -0.0347328 73.1396 -0.0130959 73.1396 0.268177Z" fill="black"/>
<path d="M43.8221 8.27368C38.0235 9.13913 33.0039 13.6395 32.0302 18.8106C31.7057 20.5848 31.7922 23.0947 32.2033 24.7174C33.2852 28.8283 36.9417 32.5498 41.3339 34.0211C43.2596 34.6702 46.5267 34.8216 48.6903 34.3673C53.4503 33.372 57.5396 29.7587 59.0758 25.1718C59.66 23.3976 59.7249 19.9141 59.184 18.0534C57.7127 12.9904 53.2123 9.20404 47.5869 8.29531C46.0507 8.03568 45.4232 8.03568 43.8221 8.27368ZM41.1825 10.5239C42.8052 11.2162 44.8607 13.9641 48.409 20.1737C51.806 26.1021 53.0176 28.785 53.0176 30.3645C53.0176 31.1001 52.1305 32.2036 51.3732 32.3767C49.4692 32.8527 47.6085 30.7323 43.0216 22.7701C39.5381 16.7335 38.5212 14.4833 38.5212 12.7524C38.5212 11.4542 38.8025 10.9133 39.6679 10.5455C40.5334 10.156 40.3603 10.1777 41.1825 10.5239Z" fill="black"/>
<path d="M100.942 8.18712C94.9925 9.05258 92.6341 9.96132 91.3359 11.8437C90.7301 12.7308 90.2108 14.6781 90.3839 15.4137C91.033 18.1832 93.9756 19.5463 97.2427 18.551C99.4928 17.8586 100.618 16.4955 100.618 14.4401C100.618 12.0384 101.483 9.61513 102.5 9.16077C103.301 8.79295 103.777 8.87949 104.469 9.46368C105.465 10.3075 105.832 11.649 105.962 15.0026C106.07 17.7721 106.07 17.9668 105.681 18.075C105.443 18.1399 104.339 18.3995 103.214 18.6592C100.185 19.3299 97.9783 20.0872 95.4468 21.2988C90.9032 23.5057 88.8044 26.7945 89.7132 30.278C90.1243 31.8358 91.0763 32.896 92.9154 33.7398C94.1486 34.3023 94.4299 34.3456 96.9397 34.3456C100.272 34.3456 102.003 33.8047 105.032 31.8141C106.027 31.1651 106.352 31.0352 106.59 31.23C106.763 31.3598 106.893 31.5978 106.893 31.7492C106.893 32.2469 108.559 33.5234 109.727 33.9345C110.571 34.2374 111.523 34.3456 113.167 34.3456C115.287 34.3456 115.547 34.3023 116.91 33.6532C118.728 32.7878 120.48 31.1434 121.367 29.499C122.406 27.5301 122.125 26.8378 120.826 28.2009C119.615 29.4774 118.425 29.802 117.754 29.0447C117.429 28.6552 117.365 27.8763 117.256 22.9216C117.105 16.3873 116.889 14.7646 115.915 12.8173C114.876 10.697 112.994 9.61513 108.84 8.68476C107.066 8.29531 102.284 7.9924 100.942 8.18712ZM106.07 24.4361C106.135 29.737 106.135 29.802 105.659 30.278C105.4 30.5376 104.642 30.8621 103.95 30.992C102.89 31.2083 102.609 31.2083 102.003 30.9054C101.072 30.4727 100.596 29.499 100.445 27.8547C100.25 25.4098 101.072 23.0297 102.673 21.3637C103.517 20.5199 105.465 19.1135 105.854 19.0919C105.941 19.0919 106.027 21.4936 106.07 24.4361Z" fill="black"/>
</svg>
